<?xml version="1.0" encoding="UTF-8" standalone="no"?>
<!-- Created with Inkscape (http://www.inkscape.org/) -->

<svg
   xmlns:osb="http://www.openswatchbook.org/uri/2009/osb"
   xmlns:dc="http://purl.org/dc/elements/1.1/"
   xmlns:cc="http://creativecommons.org/ns#"
   xmlns:rdf="http://www.w3.org/1999/02/22-rdf-syntax-ns#"
   xmlns:svg="http://www.w3.org/2000/svg"
   xmlns="http://www.w3.org/2000/svg"
   xmlns:sodipodi="http://sodipodi.sourceforge.net/DTD/sodipodi-0.dtd"
   xmlns:inkscape="http://www.inkscape.org/namespaces/inkscape"
   width="744.09448819"
   height="1052.3622047"
   id="svg3986"
   version="1.1"
   inkscape:version="0.48.5 r10040"
   sodipodi:docname="emdrive.svg">
  <defs
     id="defs3988">
    <marker
       inkscape:stockid="Arrow1Lstart"
       orient="auto"
       refY="0.0"
       refX="0.0"
       id="Arrow1Lstart"
       style="overflow:visible">
      <path
         id="path4610"
         d="M 0.0,0.0 L 5.0,-5.0 L -12.5,0.0 L 5.0,5.0 L 0.0,0.0 z "
         style="fill-rule:evenodd;stroke:#000000;stroke-width:1.0pt"
         transform="scale(0.8) translate(12.5,0)" />
    </marker>
    <linearGradient
       id="linearGradient4589"
       osb:paint="solid">
      <stop
         style="stop-color:#000000;stop-opacity:1;"
         offset="0"
         id="stop4591" />
    </linearGradient>
    <inkscape:perspective
       sodipodi:type="inkscape:persp3d"
       inkscape:vp_x="0 : 526.18109 : 1"
       inkscape:vp_y="0 : 1000 : 0"
       inkscape:vp_z="744.09448 : 526.18109 : 1"
       inkscape:persp3d-origin="372.04724 : 350.78739 : 1"
       id="perspective4019" />
  </defs>
  <sodipodi:namedview
     id="base"
     pagecolor="#ffffff"
     bordercolor="#666666"
     borderopacity="1.0"
     inkscape:pageopacity="0.0"
     inkscape:pageshadow="2"
     inkscape:zoom="1.4"
     inkscape:cx="373.5894"
     inkscape:cy="160.49698"
     inkscape:document-units="px"
     inkscape:current-layer="layer1"
     showgrid="false"
     inkscape:snap-object-midpoints="true"
     inkscape:snap-bbox="true"
     inkscape:snap-midpoints="true"
     inkscape:snap-center="true"
     inkscape:snap-bbox-midpoints="true"
     inkscape:window-width="1440"
     inkscape:window-height="802"
     inkscape:window-x="0"
     inkscape:window-y="0"
     inkscape:window-maximized="1" />
  <metadata
     id="metadata3991">
    <rdf:RDF>
      <cc:Work
         rdf:about="">
        <dc:format>image/svg+xml</dc:format>
        <dc:type
           rdf:resource="http://purl.org/dc/dcmitype/StillImage" />
        <dc:title></dc:title>
      </cc:Work>
    </rdf:RDF>
  </metadata>
  <g
     inkscape:label="Layer 1"
     inkscape:groupmode="layer"
     id="layer1">
    <path
       style="fill:#37bc9b;fill-opacity:1;stroke:#000000;stroke-width:4;stroke-miterlimit:4;stroke-opacity:1;stroke-dasharray:none;stroke-linejoin:bevel;marker-start:none;stroke-linecap:butt"
       d="M 538.84375 458.5625 L 538.84375 474.28125 L 523.9375 480.71875 L 523.9375 466.375 L 509.0625 466.375 L 509.0625 487.125 L 380.21875 542.6875 L 380.21875 477.4375 L 356.1875 477.4375 L 356.1875 517.5625 L 263.53125 517.5625 L 263.53125 477.4375 L 239.5 477.4375 L 239.5 596.96875 L 209.3125 596.96875 L 209.3125 501.65625 L 193.25 501.65625 L 193.25 705.0625 L 209.3125 705.0625 L 209.3125 609.71875 L 239.5 609.71875 L 239.5 729.25 L 263.53125 729.25 L 263.53125 689.125 L 356.1875 689.125 L 356.1875 729.25 L 380.21875 729.25 L 380.21875 664 L 509.0625 719.5625 L 509.0625 740.3125 L 523.9375 740.3125 L 523.9375 725.96875 L 538.84375 732.40625 L 538.84375 748.125 L 554.59375 748.125 L 554.59375 739.1875 L 554.59375 467.5 L 554.59375 458.5625 L 538.84375 458.5625 z "
       id="rect4054"
       inkscape:export-filename="/Users/vertexclique/Desktop/emdrive.png"
       inkscape:export-xdpi="90"
       inkscape:export-ydpi="90" />
    <path
       inkscape:export-ydpi="90"
       inkscape:export-xdpi="90"
       inkscape:export-filename="/Users/vertexclique/Desktop/emdrive.png"
       id="path5259"
       d="m 538.84375,756.41964 0,15.71875 -14.90625,6.4375 0,-14.34375 -14.875,0 0,20.75 -128.84375,55.5625 0,-65.25 -24.03125,0 0,40.125 -92.65625,0 0,-40.125 -24.03125,0 0,119.53125 -30.1875,0 0,-95.3125 -16.0625,0 0,203.40621 16.0625,0 0,-95.3437 30.1875,0 0,119.5312 24.03125,0 0,-40.125 92.65625,0 0,40.125 24.03125,0 0,-65.25 128.84375,55.5625 0,20.75 14.875,0 0,-14.3437 14.90625,6.4375 0,15.7187 15.75,0 0,-8.9375 0,-271.68746 0,-8.9375 -15.75,0 z"
       style="fill:#37bc9b;fill-opacity:1;stroke:#ffffff;stroke-width:8;stroke-linecap:butt;stroke-linejoin:bevel;stroke-miterlimit:4;stroke-opacity:1;stroke-dasharray:none;marker-start:none"
       inkscape:connector-curvature="0" />
  </g>
</svg>
